<svg width="26" height="26" viewBox="0 0 26 26" fill="none" xmlns="http://www.w3.org/2000/svg">
<path d="M13 0.5C19.9036 0.5 25.5 6.09644 25.5 13C25.5 19.9036 19.9036 25.5 13 25.5C6.09644 25.5 0.5 19.9036 0.5 13C0.5 6.09644 6.09644 0.5 13 0.5Z" stroke="#F8F1EC"/>
<path d="M12.8709 18.9214C13.5703 18.9214 14.1372 18.3544 14.1372 17.655C14.1372 16.9556 13.5703 16.3887 12.8709 16.3887C12.1715 16.3887 11.6045 16.9556 11.6045 17.655C11.6045 18.3544 12.1715 18.9214 12.8709 18.9214Z" fill="#F7F6F7"/>
<path fill-rule="evenodd" clip-rule="evenodd" d="M12.871 16.5589C12.2655 16.5589 11.7747 17.0498 11.7747 17.6553C11.7747 18.2608 12.2655 18.7516 12.871 18.7516C13.4765 18.7516 13.9674 18.2608 13.9674 17.6553C13.9674 17.0498 13.4765 16.5589 12.871 16.5589ZM11.0596 17.6553C11.0596 16.6548 11.8706 15.8438 12.8711 15.8438C13.8716 15.8438 14.6827 16.6548 14.6827 17.6553C14.6827 18.6558 13.8716 19.4669 12.8711 19.4669C11.8706 19.4669 11.0596 18.6558 11.0596 17.6553Z" fill="#1E1A23"/>
<path fill-rule="evenodd" clip-rule="evenodd" d="M12.2441 12.9852C12.2441 12.6406 12.5235 12.3613 12.868 12.3613C13.2125 12.3613 13.4919 12.6406 13.4919 12.9852V17.2417C13.4919 17.5862 13.2125 17.8655 12.868 17.8655C12.5235 17.8655 12.2441 17.5862 12.2441 17.2417V12.9852Z" fill="#D3D0D5"/>
<path d="M12.8707 13.1066C14.6891 13.1066 16.1632 11.6325 16.1632 9.81403C16.1632 7.99561 14.6891 6.52148 12.8707 6.52148C11.0523 6.52148 9.57812 7.99561 9.57812 9.81403C9.57812 11.6325 11.0523 13.1066 12.8707 13.1066Z" fill="#1E1A23"/>
<path fill-rule="evenodd" clip-rule="evenodd" d="M12.871 6.6775C11.1386 6.6775 9.73418 8.08191 9.73418 9.81433C9.73418 11.5467 11.1386 12.9512 12.871 12.9512C14.6034 12.9512 16.0078 11.5467 16.0078 9.81433C16.0078 8.08191 14.6034 6.6775 12.871 6.6775ZM9.42285 9.81449C9.42285 7.91006 10.9667 6.36621 12.8711 6.36621C14.7756 6.36621 16.3194 7.91006 16.3194 9.81449C16.3194 11.7189 14.7756 13.2628 12.8711 13.2628C10.9667 13.2628 9.42285 11.7189 9.42285 9.81449Z" fill="#1E1A23"/>
<path d="M12.8715 10.8279C13.431 10.8279 13.8846 10.3743 13.8846 9.81485C13.8846 9.25533 13.431 8.80176 12.8715 8.80176C12.312 8.80176 11.8584 9.25533 11.8584 9.81485C11.8584 10.3743 12.312 10.8279 12.8715 10.8279Z" fill="#F7F6F7"/>
</svg>
